# xmcd CD database file
#
# Track frame offsets:
#	150
#	28343
#	49953
#	84844
#	129167
#	144994
#	163799
#	212258
#
# Disc length: 3375 seconds
#
# Revision: 0
# Processed by: cddbd v1.5.2PL0 Copyright (c) Steve Scherf et al.
# Submitted via: CDex 1.51
#
DISCID=620d2d08
DTITLE=Lou Marini - Lou's Blues
DYEAR=2001
DGENRE=Jazz
TTITLE0=Lou's Blues
TTITLE1=Looking With New Eyes
TTITLE2=Hip Pickles
TTITLE3=Odalisk
TTITLE4=Mr. Clean
TTITLE5=Song For John
TTITLE6=Dangerous Cargo
TTITLE7=Rena/Country
EXTD=YEAR: 2001
EXTT0=
EXTT1=
EXTT2=
EXTT3=
EXTT4=
EXTT5=
EXTT6=
EXTT7=
PLAYORDER=
